<mxfile host="Electron" agent="Mozilla/5.0 (Windows NT 10.0; Win64; x64) AppleWebKit/537.36 (KHTML, like Gecko) draw.io/28.2.5 Chrome/138.0.7204.251 Electron/37.6.1 Safari/537.36" version="28.2.5">
  <diagram name="Página-1" id="Sx2T3CAmm6xzCjGRm6Pz">
    <mxGraphModel dx="1426" dy="841" grid="1" gridSize="10" guides="1" tooltips="1" connect="1" arrows="1" fold="1" page="1" pageScale="1" pageWidth="4681" pageHeight="3300" math="0" shadow="0">
      <root>
        <mxCell id="0" />
        <mxCell id="1" parent="0" />
        <mxCell id="jEfyJ-ePnoStlQaBiA4K-2" value="livros" style="rounded=1;arcSize=10;whiteSpace=wrap;html=1;align=center;" vertex="1" parent="1">
          <mxGeometry x="130" y="240" width="100" height="40" as="geometry" />
        </mxCell>
        <mxCell id="jEfyJ-ePnoStlQaBiA4K-6" value="" style="edgeStyle=orthogonalEdgeStyle;rounded=0;orthogonalLoop=1;jettySize=auto;html=1;" edge="1" parent="1" source="jEfyJ-ePnoStlQaBiA4K-3" target="jEfyJ-ePnoStlQaBiA4K-5">
          <mxGeometry relative="1" as="geometry" />
        </mxCell>
        <mxCell id="jEfyJ-ePnoStlQaBiA4K-3" value="leitores" style="rounded=1;arcSize=10;whiteSpace=wrap;html=1;align=center;" vertex="1" parent="1">
          <mxGeometry x="850" y="240" width="100" height="40" as="geometry" />
        </mxCell>
        <mxCell id="jEfyJ-ePnoStlQaBiA4K-9" value="" style="edgeStyle=orthogonalEdgeStyle;rounded=0;orthogonalLoop=1;jettySize=auto;html=1;" edge="1" parent="1" source="jEfyJ-ePnoStlQaBiA4K-4" target="jEfyJ-ePnoStlQaBiA4K-8">
          <mxGeometry relative="1" as="geometry" />
        </mxCell>
        <mxCell id="jEfyJ-ePnoStlQaBiA4K-4" value="empréstimos" style="rounded=1;arcSize=10;whiteSpace=wrap;html=1;align=center;" vertex="1" parent="1">
          <mxGeometry x="490" y="240" width="100" height="40" as="geometry" />
        </mxCell>
        <mxCell id="jEfyJ-ePnoStlQaBiA4K-7" style="edgeStyle=orthogonalEdgeStyle;rounded=0;orthogonalLoop=1;jettySize=auto;html=1;entryX=1;entryY=0.5;entryDx=0;entryDy=0;" edge="1" parent="1" source="jEfyJ-ePnoStlQaBiA4K-5" target="jEfyJ-ePnoStlQaBiA4K-4">
          <mxGeometry relative="1" as="geometry" />
        </mxCell>
        <mxCell id="jEfyJ-ePnoStlQaBiA4K-5" value="realiza" style="rhombus;whiteSpace=wrap;html=1;rounded=1;arcSize=10;" vertex="1" parent="1">
          <mxGeometry x="680" y="220" width="80" height="80" as="geometry" />
        </mxCell>
        <mxCell id="jEfyJ-ePnoStlQaBiA4K-10" style="edgeStyle=orthogonalEdgeStyle;rounded=0;orthogonalLoop=1;jettySize=auto;html=1;entryX=1;entryY=0.5;entryDx=0;entryDy=0;" edge="1" parent="1" source="jEfyJ-ePnoStlQaBiA4K-8" target="jEfyJ-ePnoStlQaBiA4K-2">
          <mxGeometry relative="1" as="geometry" />
        </mxCell>
        <mxCell id="jEfyJ-ePnoStlQaBiA4K-8" value="marca" style="rhombus;whiteSpace=wrap;html=1;rounded=1;arcSize=10;" vertex="1" parent="1">
          <mxGeometry x="320" y="220" width="80" height="80" as="geometry" />
        </mxCell>
        <mxCell id="jEfyJ-ePnoStlQaBiA4K-11" value="0:N" style="text;html=1;align=center;verticalAlign=middle;resizable=0;points=[];autosize=1;strokeColor=none;fillColor=none;" vertex="1" parent="1">
          <mxGeometry x="805" y="230" width="40" height="30" as="geometry" />
        </mxCell>
        <mxCell id="jEfyJ-ePnoStlQaBiA4K-12" value="1:1" style="text;html=1;align=center;verticalAlign=middle;resizable=0;points=[];autosize=1;strokeColor=none;fillColor=none;" vertex="1" parent="1">
          <mxGeometry x="595" y="230" width="40" height="30" as="geometry" />
        </mxCell>
        <mxCell id="jEfyJ-ePnoStlQaBiA4K-13" value="1:1" style="text;html=1;align=center;verticalAlign=middle;resizable=0;points=[];autosize=1;strokeColor=none;fillColor=none;" vertex="1" parent="1">
          <mxGeometry x="450" y="230" width="40" height="30" as="geometry" />
        </mxCell>
        <mxCell id="jEfyJ-ePnoStlQaBiA4K-14" value="0:N" style="text;html=1;align=center;verticalAlign=middle;resizable=0;points=[];autosize=1;strokeColor=none;fillColor=none;" vertex="1" parent="1">
          <mxGeometry x="235" y="230" width="40" height="30" as="geometry" />
        </mxCell>
      </root>
    </mxGraphModel>
  </diagram>
</mxfile>
